<?xml version="1.0" encoding="UTF-8"?>
<svg version="1.1" xmlns="http://www.w3.org/2000/svg" width="462" height="372">
<path d="M0 0 C152.46 0 304.92 0 462 0 C462 122.76 462 245.52 462 372 C309.54 372 157.08 372 0 372 C0 249.24 0 126.48 0 0 Z " fill="#FFFEFE" transform="translate(0,0)"/>
<path d="M0 0 C2.3253946 -0.00202533 4.65078858 -0.00494057 6.97618103 -0.00869751 C11.82833965 -0.01309836 16.68033159 -0.00676169 21.5324707 0.00732422 C27.7211002 0.0244241 33.90933949 0.0145552 40.09795475 -0.00339317 C44.89292795 -0.01428352 49.68781009 -0.0107608 54.48278618 -0.0030098 C56.76352422 -0.00102278 59.0442708 -0.00341374 61.32499886 -0.01044846 C76.06472196 -0.04595025 89.38486821 0.38154248 103.02734375 6.5859375 C103.69910645 6.88709473 104.37086914 7.18825195 105.06298828 7.49853516 C111.26848078 10.38691524 116.63311187 14.02783431 121.90234375 18.3984375 C122.76472656 19.09839844 123.62710938 19.79835938 124.515625 20.51953125 C133.02550802 27.76390814 138.97150444 36.19875275 144.15234375 46.0234375 C144.46961426 46.60101807 144.78688477 47.17859863 145.11376953 47.77368164 C153.51554024 64.51320536 152.50253767 83.24805772 152.43964577 101.43815804 C152.42937771 105.34725112 152.4389491 109.25631034 152.44519043 113.16540527 C152.45242731 119.72476041 152.44298419 126.28393424 152.42382812 132.84326172 C152.40206697 140.38071207 152.40912117 147.91772932 152.43113375 155.4551692 C152.44940172 161.97635536 152.45179094 168.49741266 152.44137907 175.0186162 C152.43520617 178.89168912 152.434134 182.76455984 152.44752502 186.63761902 C152.52749535 213.41410318 149.53078257 234.96769257 133.90234375 257.3984375 C133.433125 258.07648438 132.96390625 258.75453125 132.48046875 259.453125 C119.89196501 275.69384896 98.68022961 284.55398634 78.90234375 287.3984375 C75.44582686 287.65449205 72.00924394 287.69249725 68.54418945 287.68896484 C67.57341965 287.69568207 66.60264984 287.70239929 65.60246277 287.70932007 C62.42762986 287.72814858 59.25301009 287.73221669 56.078125 287.734375 C53.84531064 287.74081386 51.6124971 287.747543 49.37968445 287.75454712 C44.71054125 287.76648241 40.04147182 287.77023185 35.37231445 287.76904297 C29.4293311 287.7688401 23.48682761 287.79612676 17.54395771 287.83058739 C12.93415716 287.85297477 8.3244699 287.85687688 3.71462059 287.85582352 C1.52566057 287.85816228 -0.66330342 287.86688686 -2.85220909 287.88248825 C-29.20529697 288.05273053 -51.86350552 282.10492549 -71.30859375 263.27734375 C-88.48104444 245.95936382 -94.22595988 224.02574004 -94.2746582 200.41772461 C-94.28093409 199.01232744 -94.28758186 197.60693189 -94.29457092 196.20153809 C-94.31548222 191.6096306 -94.32596207 187.01772328 -94.3359375 182.42578125 C-94.33999008 180.8362228 -94.34410714 179.24666452 -94.34828758 177.6571064 C-94.36731191 170.18467211 -94.38154793 162.71224752 -94.38989955 155.23979372 C-94.39965779 146.65390046 -94.42595188 138.06826597 -94.46640044 129.48246378 C-94.49669736 122.81970071 -94.51138125 116.15701127 -94.51468056 109.49418074 C-94.51701579 105.52709484 -94.52577453 101.56028621 -94.55114174 97.59327507 C-94.57466662 93.85435509 -94.57855952 90.11589019 -94.56838036 86.37691498 C-94.56766017 84.37715714 -94.58657828 82.37742112 -94.60644531 80.37776184 C-94.53861899 68.37196224 -92.03883931 56.81235862 -86.34765625 46.1484375 C-86.00404053 45.48642334 -85.6604248 44.82440918 -85.30639648 44.14233398 C-75.08641316 24.94757141 -58.82860923 10.30417314 -38.09765625 3.3984375 C-25.54706989 -0.38969742 -12.98299872 -0.04008618 0 0 Z " fill="#FFDE59" transform="translate(133.09765625,46.6015625)"/>
<path d="M0 0 C6.93 0 13.86 0 21 0 C21 13.2 21 26.4 21 40 C36.51 40 52.02 40 68 40 C68 26.8 68 13.6 68 0 C74.93 0 81.86 0 89 0 C89 35.31 89 70.62 89 107 C82.07 107 75.14 107 68 107 C68 90.83 68 74.66 68 58 C52.49 58 36.98 58 21 58 C21 74.17 21 90.34 21 107 C14.07 107 7.14 107 0 107 C0 71.69 0 36.38 0 0 Z " fill="#FFFFFF" transform="translate(117,140)"/>
<path d="M0 0 C7.92 0 15.84 0 24 0 C25.13695312 3.361875 26.27390625 6.72375 27.4453125 10.1875 C29.00411931 14.79203595 30.56435535 19.39608666 32.125 24 C32.52861755 25.1907312 32.93223511 26.3814624 33.3480835 27.60827637 C39.43943407 45.5675554 45.61972846 63.49290984 51.93408203 81.375 C52.211875 82.16308044 52.48966797 82.95116089 52.77587891 83.76312256 C53.29082027 85.2231649 53.80717178 86.68271097 54.32519531 88.1416626 C56 92.88860766 56 92.88860766 56 94 C49.4 94 42.8 94 36 94 C32.535 83.605 32.535 83.605 29 73 C17.12 72.67 5.24 72.34 -7 72 C-7.66 74.97 -8.32 77.94 -9 81 C-10.25394388 85.36134496 -11.63320046 89.67180147 -13 94 C-19.6 94 -26.2 94 -33 94 C-32.34257812 92.08832031 -31.68515625 90.17664063 -31.0078125 88.20703125 C-30.304592 86.16019048 -29.60171295 84.11323278 -28.89889526 82.06625366 C-28.38241289 80.5621431 -27.8657499 79.05809454 -27.34890747 77.55410767 C-23.63435451 66.74205202 -19.9549935 55.91853846 -16.30078125 45.0859375 C-15.08323574 41.48182632 -13.86544417 37.87779835 -12.64764404 34.27377319 C-11.84224076 31.88695304 -11.0384021 29.49960434 -10.23614502 27.11172485 C-9.09749066 23.72290629 -7.95352761 20.33591999 -6.80859375 16.94921875 C-6.46838699 15.9318161 -6.12818024 14.91441345 -5.77766418 13.86618042 C-5.45585678 12.91735992 -5.13404938 11.96853943 -4.80249023 10.9909668 C-4.52557846 10.16831833 -4.24866669 9.34566986 -3.96336365 8.49809265 C-2.83872762 5.58180554 -1.39782235 2.79564471 0 0 Z " fill="#000000" transform="translate(343,147)"/>
<path d="M0 0 C5.94 0 11.88 0 18 0 C18 23.43 18 46.86 18 71 C12.06 71 6.12 71 0 71 C0 47.57 0 24.14 0 0 Z " fill="#000000" transform="translate(410,170)"/>
<path d="M0 0 C0.99 0.33 1.98 0.66 3 1 C4.05306626 3.49777187 4.90575571 5.88394589 5.69921875 8.46484375 C5.9391304 9.21335098 6.17904205 9.96185822 6.42622375 10.73304749 C6.93178376 12.31756201 7.43156654 13.90392961 7.92602539 15.49194336 C8.68439969 17.92754303 9.45866143 20.35760869 10.23632812 22.78710938 C10.72489071 24.32522499 11.21255147 25.86362741 11.69921875 27.40234375 C11.93041916 28.13259262 12.16161957 28.86284149 12.39982605 29.61521912 C14 34.76300087 14 34.76300087 14 37 C5.75 37 -2.5 37 -11 37 C-9.76442577 31.43991597 -8.5780906 26.34699257 -6.8359375 20.99609375 C-6.43632812 19.76181641 -6.03671875 18.52753906 -5.625 17.25585938 C-5.20842412 15.9830432 -4.79175636 14.71025709 -4.375 13.4375 C-3.95014112 12.12968058 -3.52565909 10.82173868 -3.1015625 9.51367188 C-2.07139602 6.34122737 -1.03745343 3.17006745 0 0 Z " fill="#FFFFFF" transform="translate(353,167)"/>
<path d="M0 0 C3.0190434 1.75299294 5.41511201 3.83022401 7 7 C7.67660495 12.86390959 7.67660495 12.86390959 5.953125 15.7578125 C2.79952172 19.59778826 1.18409591 20.88159041 -3.75 21.375 C-7.23710971 21.31148252 -8.2276555 20.86754589 -11.4375 19 C-14.2055301 15.7593794 -14.95307689 14.07513109 -15.171875 9.92578125 C-14.82741841 6.06630171 -12.85585578 3.91925251 -10.3125 1.1875 C-6.89127695 -0.56934427 -3.7048151 -0.78220664 0 0 Z " fill="#000000" transform="translate(423,141)"/>
</svg>
